<svg xmlns="http://www.w3.org/2000/svg" xmlns:xlink="http://www.w3.org/1999/xlink" width="1300" height="116" xmlns:v="https://vecta.io/nano"><defs><linearGradient id="A" x1=".426" y1=".721" x2="1.053" y2="-.005"><stop offset="0" stop-color="#fff"/><stop offset="1"/></linearGradient><linearGradient id="B" x1=".733" y1=".5" x2="-.449" y2=".5" xlink:href="#A"/><linearGradient id="C" x1=".52" y1=".5" x2="-.318" y2=".5" xlink:href="#A"/><linearGradient id="D" x1=".73" y1=".5" x2="-.173" y2=".5" xlink:href="#A"/><linearGradient id="E" x1=".5" y1=".516" x2=".5" y2="-.344" xlink:href="#A"/><linearGradient id="F" x1=".608" y1=".5" x2="-.326" y2=".5" xlink:href="#A"/><linearGradient id="G" x1=".5" y1=".391" x2=".5" y2="1.222" xlink:href="#A"/><linearGradient id="H" x1="-179.273" y1="-164.955" x2="180.23" y2="165.915" xlink:href="#A"/><linearGradient id="I" x1=".265" y1=".474" x2="1.109" y2="1.181"><stop offset="0" stop-color="#fff"/><stop offset=".271" stop-color="#ababab"/><stop offset=".534" stop-color="#626262"/><stop offset=".75" stop-color="#2d2d2d"/><stop offset=".912" stop-color="#0c0c0c"/><stop offset="1"/></linearGradient><linearGradient id="J" x1=".5" y1=".925" x2=".5" y2="-.335" xlink:href="#A"/><linearGradient id="K" x1=".5" y1=".485" x2=".5" y2="1.331" xlink:href="#A"/><linearGradient id="L" x1=".215" y1=".928" x2="1.065" y2="-.349" xlink:href="#A"/><linearGradient id="M" x1=".534" y1=".251" x2=".083" y2="1.609" xlink:href="#A"/><linearGradient id="N" x1="235.166" y1="410.868" x2="-234.111" y2="-409.764" xlink:href="#A"/><linearGradient id="O" x1=".613" y1=".612" x2=".14" y2=".127" xlink:href="#A"/></defs><g transform="translate(-380.432 -230.091)"><path d="M1422.42 234.547h-7.4v108.414h25.54v-90.466a18.044 18.044 0 0 0-18.14-17.948zM548.913 337.625q6.625-15.6 13.275-31.183l1.454-3.411.295-.658 1.855-4.081 1.822 4.044.244.546 2.231 5.23 12.566 29.512q10.135-.021 20.263-.016h7.282L565.779 231.9l-44.592 105.707h6.368q10.68.001 21.358.018z" fill="#fff"/><path d="M546.349 277.958l-25.162 59.65h6.368q10.68 0 21.358.017 6.625-15.6 13.275-31.183l1.454-3.411.295-.658 1.855-4.081-8.585-20.335a5.908 5.908 0 0 0-10.858.001z" fill="url(#A)" style="mix-blend-mode:multiply"/><path d="M1634.845,304.142h32.272V278.775h-32.293V262.564h45.608V237.275h-71.2V345.684H1680.4V320.352h-45.557Z" fill="#fff"/><path fill="url(#B)" style="mix-blend-mode:multiply" d="M1634.845 278.775h32.272v25.367h-32.272z"/><path fill="url(#C)" style="mix-blend-mode:multiply" d="M1634.845 320.352h45.558v25.333h-45.558z"/><path d="M1634.845,237.275H1624A10.785,10.785,0,0,1,1634.845,248v14.562h45.587V237.275Z" fill="url(#D)" style="mix-blend-mode:multiply"/><path d="M406.079 255.859h45.252v-25.31h-70.9v108.425h25.627v-41.515h32.326v-25.382h-32.305z" fill="#fff"/><path d="M393.063,255.859a12.565,12.565,0,0,0-12.631,12.5v70.616h25.627V255.859Z" fill="url(#E)" style="mix-blend-mode:multiply"/><path fill="url(#F)" style="mix-blend-mode:multiply" d="M406.059 272.077h32.326v25.382h-32.326z"/><path d="M1311.7,235.667h-25.632V344.308h65.5v-25H1311.7Z" fill="#fff"/><path d="M1286.066 235.667h25.632 0v83.64h0-15.665c-2.644 0-5.179-1.05-7.048-2.92s-2.919-4.405-2.919-7.048v-73.672h0z" fill="url(#G)" style="mix-blend-mode:multiply"/><path d="M1175.6,341.608h25.59V235.967l-57.82,62.445-57.645-62.447V341.608h25.614V301.359l32.03,34.743,32.231-35.135Z" fill="#fff"/><path d="M1179.278,259.626l.022-.024h0Z" fill="url(#H)" style="mix-blend-mode:multiply"/><path d="M1143.351,298.4l-22.9-24.813-9.112,27.775,6.212,6.738a11.462,11.462,0,0,0,16.8.022Z" fill="url(#I)" style="mix-blend-mode:multiply"/><path d="M704.933 288.742l3.206 2.509.391.312 36.8 31.5q8.348 7.145 16.7 14.284V230.52h-25.421v51.816l-57.3-49.314V339h25.622z" fill="#fff"/><path d="M690.664 277.516l14.269 11.226V339h-25.622v-56.063a7 7 0 0 1 11.353-5.421z" fill="url(#J)" style="mix-blend-mode:multiply"/><path fill="url(#K)" style="mix-blend-mode:multiply" d="M736.609 230.52h25.424v72.623h-25.424z"/><path d="M751.075 294.612l-41.29-35.362-4.852 29.492 57.1 48.6V288.96a6.973 6.973 0 0 1-10.958 5.652zm109.39 44.82h25.667v-83.817h30.537v-25.524H830.1v25.559h30.369z" fill="#fff"/><path d="M830.096 230.091h17.8c6.942 0 12.57 5.628 12.57 12.57v12.989h0-30.37 0v-25.559h0z" fill="url(#L)" style="mix-blend-mode:multiply"/><path d="M1530.515 278.628l-1.254 2.678-.261.523-1.8 3.543-1.767-3.6-.238-.49-2.411-5.153q-8.622-18.429-17.227-36.866-9.684.017-19.366.013h-9.031l50.074 106.812 49.9-106.812h-9.07q-9.569 0-19.14-.018-9.198 19.69-18.409 39.37z" fill="#fff"/><path d="M1577.131 239.279h-9.07q-9.569 0-19.14-.018-9.2 19.686-18.406 39.366l-1.254 2.679-.261.522-1.783 3.505 6.848 14.5a8.19 8.19 0 0 0 14.788-.029z" fill="url(#M)" style="mix-blend-mode:multiply"/><path d="M1042.25 318.963c7.724-12.61 10.158-26.06 7.234-39.977a52.81 52.81 0 0 0-18.056-30.2c-10.354-8.723-21.878-13.146-34.251-13.146a58.057 58.057 0 0 0-13.009 1.537c-27.2 6.28-45.356 32.745-41.329 60.251 2.182 14.9 9.177 26.875 20.791 35.6a54.341 54.341 0 0 0 25.411 10.884l.787.1.458.049c1.8.176 3.631.27 5.481.27 1.708 0 3.4-.089 5.065-.239a61.6 61.6 0 0 0 15.052-3.563 8.02 8.02 0 0 1 .553-.176l.075-.023a55.323 55.323 0 0 0 22.884-17.158 3.831 3.831 0 0 1 .279-.439c.751-1.024 1.725-2.378 2.575-3.77zm-23.661-11.012a28.12 28.12 0 0 1-16.45 10.306 29.644 29.644 0 0 1-6.2.68h0c-7.178 0-13.685-2.827-19.34-8.4a28.481 28.481 0 0 1-8.148-25.718 29.1 29.1 0 0 1 16.685-21.307 27.068 27.068 0 0 1 11.214-2.4 28.963 28.963 0 0 1 28.65 27.694 30.956 30.956 0 0 1-6.411 19.145z" fill="#fff"/><path d="M978.652 267.526h0 .006z" fill="url(#N)" style="mix-blend-mode:multiply"/><path d="M1049.484 278.986h0l-.071-.308a28.639 28.639 0 0 0-18-20.575 49.505 49.505 0 0 0-17.5-3.16 57.985 57.985 0 0 0-13.009 1.537 53.541 53.541 0 0 0-21.793 10.682l.445-.328.958-.706.548-.356.928-.6.82-.465.721-.408 1.36-.664.245-.12a27.068 27.068 0 0 1 11.214-2.4 28.309 28.309 0 0 1 21.391 9.747 29.867 29.867 0 0 1 6.489 12.1l.023.1a25.3 25.3 0 0 1 .541 2.852q.088.67.139 1.341l.072 1.558h0a30.956 30.956 0 0 1-6.412 19.145 28.269 28.269 0 0 1-8.355 7.242q-1.066.6-2.187 1.115a28.905 28.905 0 0 1-5.908 1.949l-1.148.216a29.089 29.089 0 0 1-5.055.464h0c-7.178 0-13.685-2.827-19.34-8.4a29.7 29.7 0 0 1-3.915-4.769q-.468-.707-.891-1.435-.464-.8-.872-1.622a27.457 27.457 0 0 1-2.474-7.362 29.067 29.067 0 0 1 0-10.53c.095-.522.209-1.038.332-1.552l.1-.406q.172-.68.376-1.347c.019-.062.035-.124.054-.186.155-.494.326-.982.507-1.465l.148-.384q.234-.6.494-1.191l.124-.283c.21-.463.434-.918.667-1.368l.189-.352q.293-.543.606-1.072c.066-.11.129-.221.2-.33q.391-.642.817-1.262l.217-.307q.35-.5.719-.977l.264-.343c.31-.391.628-.775.958-1.15.072-.082.147-.16.22-.241q.414-.461.848-.9l.324-.327c.352-.348.709-.69 1.078-1.019a53.968 53.968 0 0 0-18.114 48.376l.04.265a31.5 31.5 0 0 0 22.073 25.329l.526.156.726.2.983.255.57.135 1.136.255.408.082 1.3.245c.078.014.157.025.235.038l1.466.225a25 25 0 0 0 .818.1l.437.047c1.8.176 3.631.27 5.481.27 1.708 0 3.4-.089 5.065-.239q.966-.1 1.938-.232l1.065-.163q.6-.093 1.2-.2l1.038-.194 1.479-.313.741-.163c.719-.17 1.44-.358 2.162-.556l.772-.221 1.632-.493.724-.231c.767-.252 1.536-.515 2.306-.8.077-.029.163-.052.243-.078l.31-.1.075-.023a55.323 55.323 0 0 0 22.884-17.158 3.9 3.9 0 0 1 .278-.438h0c.751-1.024 1.723-2.378 2.575-3.77a54.1 54.1 0 0 0 8.423-29.632 55.1 55.1 0 0 0-1.201-10.352z" fill="url(#O)" style="mix-blend-mode:multiply"/></g></svg>